<svg width="719" height="703" viewBox="0 0 719 703" fill="none" xmlns="http://www.w3.org/2000/svg">
<path d="M102.874 448.283L0.490375 270.949L64.0913 234.229C86.8712 221.077 106.612 215.333 123.314 216.997C140.086 218.399 153.032 226.998 162.152 242.794C167.624 252.272 170.153 261.453 169.74 270.338C169.231 279.057 165.684 287.312 159.098 295.105C169.85 292.224 179.556 292.716 188.218 296.583C197.047 300.354 204.245 307.062 209.813 316.706C219.797 333.999 221.846 350.22 215.959 365.368C209.977 380.351 196.226 394.165 174.706 406.811L102.874 448.283ZM102.036 348.336L126.516 390.736L154.451 374.608C162.266 370.096 167.244 364.894 169.385 359.003C171.526 353.111 170.724 346.923 166.98 340.438C158.436 325.639 146.765 322.512 131.966 331.056L102.036 348.336ZM85.7644 320.152L107.962 307.336C117.274 301.96 123.013 296.54 125.18 291.077C127.25 285.447 126.366 279.307 122.526 272.656C118.206 265.174 112.924 261.018 106.681 260.188C100.604 259.263 92.7433 261.584 83.0993 267.152L62.1484 279.248L85.7644 320.152ZM299.954 98.0534L367.922 215.777C379.058 235.066 381.69 253.832 375.817 272.076C370.015 290.059 356.14 305.386 334.191 318.058C320.058 326.218 306.23 330.876 292.708 332.031C279.257 332.925 266.933 330.396 255.738 324.444C244.708 318.397 235.546 309.054 228.25 296.417L160.282 178.693L203.43 153.781L271.398 271.505C276.966 281.15 283.435 287.17 290.805 289.566C298.244 291.7 306.371 290.223 315.183 285.135C333.141 274.767 336.504 259.856 325.272 240.401L257.304 122.677L299.954 98.0534ZM458.77 159.336L435.574 172.728L471.718 235.331L429.068 259.955L326.684 82.6208L396.271 42.4448C417.388 30.2528 436.586 25.4877 453.863 28.1494C471.211 30.5489 484.781 40.2288 494.573 57.1891C501.677 69.4936 505.004 81.2076 504.553 92.3311C504.269 103.359 500.329 114.391 492.734 125.427L570.975 175.697L571.983 177.443L526.091 203.939L458.77 159.336ZM416.566 139.805L443.503 124.253C451.484 119.645 456.306 113.979 457.966 107.256C459.794 100.437 458.499 93.203 454.083 85.5543C449.667 77.9056 444.05 73.1676 437.23 71.3404C430.578 69.4172 423.26 70.7596 415.279 75.3676L388.342 90.9196L416.566 139.805ZM397.912 584.696C395.581 596.019 389.31 607.621 379.098 619.502C368.957 631.121 356.404 641.251 341.439 649.891C325.976 658.819 310.6 663.484 295.313 663.885C279.929 664.12 265.491 660.041 251.998 651.647C238.506 643.253 226.876 630.79 217.11 614.258L207.932 598.938C198.768 583.833 193.137 568.128 191.04 551.824C189.11 535.424 191.577 519.922 198.442 505.316C205.307 490.711 217.054 478.608 233.681 469.008C255.796 456.24 275.851 451.424 293.845 454.559C311.909 457.431 327.747 468.351 341.359 487.319L300.205 511.079C293.045 502.133 285.853 496.973 278.631 495.6C271.48 493.965 263.331 495.787 254.186 501.067C243.544 507.211 237.87 516.584 237.164 529.185C236.625 541.69 241.203 556.34 250.899 573.134L257.091 583.859C267.363 601.65 278.119 613.177 289.359 618.437C300.599 623.698 312.621 622.632 325.424 615.24C336.731 608.712 343.522 601.466 345.797 593.502L329.957 566.066L300.276 583.202L283.284 553.771L355.864 511.867L397.912 584.696ZM501.868 453.844L434.525 492.724L458.861 534.875L538.176 489.083L557.184 522.006L435.219 592.422L332.835 415.087L455.049 344.527L474.057 377.45L394.493 423.386L416.093 460.798L483.436 421.918L501.868 453.844ZM604.27 411.349L581.074 424.741L617.218 487.344L574.568 511.968L472.184 334.634L541.771 294.458C562.888 282.266 582.086 277.501 599.363 280.163C616.711 282.562 630.281 292.242 640.073 309.202C647.177 321.507 650.504 333.221 650.053 344.345C649.769 355.372 645.829 366.404 638.234 377.44L716.475 427.711L717.483 429.456L671.591 455.952L604.27 411.349ZM562.066 391.818L589.003 376.266C596.984 371.658 601.806 365.993 603.466 359.27C605.294 352.45 603.999 345.216 599.583 337.568C595.167 329.919 589.55 325.181 582.73 323.354C576.078 321.431 568.76 322.773 560.779 327.381L533.842 342.933L562.066 391.818Z" fill="black" fill-opacity="0.06"/>
</svg>
