<svg width="211" height="690" viewBox="0 0 211 690" fill="none" xmlns="http://www.w3.org/2000/svg">
<path d="M138.592 517.785C147.04 517.785 156.832 520.185 167.968 524.985C178.912 529.593 188.8 538.233 197.632 550.905C206.272 563.385 210.688 580.569 210.88 602.457C210.88 620.313 206.944 635.769 199.072 648.825C191.2 661.881 179.68 671.865 164.512 678.777C149.344 685.689 131.296 689.145 110.368 689.145L100 689.145C89.44 689.145 76.864 687.417 62.272 683.961C47.68 680.505 33.76 672.441 20.512 659.769C7.26399 647.097 0.54399 628.185 0.351991 603.033C0.35199 578.265 6.87999 558.297 19.936 543.129C32.992 527.961 51.04 519.417 74.08 517.497L74.08 566.745C61.792 566.937 52.864 570.009 47.296 575.961C41.728 581.721 38.944 590.745 38.944 603.033C38.944 615.321 43.648 624.441 53.056 630.393C62.272 636.153 76.864 639.033 96.832 639.033L111.232 639.033C126.016 639.033 137.824 637.881 146.656 635.577C155.488 633.081 161.92 629.241 165.952 624.057C169.984 618.681 172 611.481 172 602.457C172 590.937 169.312 582.201 163.936 576.249C158.56 570.297 150.112 567.225 138.592 567.033L138.592 517.785ZM169.696 378.283L169.696 445.963L208 457.771L208 510.475L3.23198 435.595L3.23198 389.227L208 313.483L208 366.475L169.696 378.283ZM131.68 434.155L131.68 390.091L60.544 412.267L131.68 434.155ZM126.496 170.118L126.496 249.606L208 249.606L208 298.854L3.23198 298.854L3.23197 162.054L41.248 162.054L41.248 249.606L88.48 249.606L88.48 170.118L126.496 170.118ZM121.312 14.5962L121.312 92.3562L169.984 92.3562L169.984 0.77223L208 0.772228L208 141.604L3.23197 141.604L3.23196 0.484241L41.248 0.484239L41.248 92.3562L84.448 92.3562L84.448 14.5962L121.312 14.5962Z" fill="black" fill-opacity="0.03"/>
</svg>
