<svg width="322" height="239" viewBox="0 0 322 239" fill="none" xmlns="http://www.w3.org/2000/svg">
<path d="M319.129 49.4138C319.676 49.4914 320.182 49.111 320.26 48.5641L321.524 39.6534C321.601 39.1065 321.221 38.6004 320.674 38.5228C320.127 38.4453 319.621 38.8256 319.543 39.3725L318.42 47.2932L310.499 46.1696C309.952 46.092 309.446 46.4724 309.369 47.0192C309.291 47.566 309.671 48.0722 310.218 48.1497L319.129 49.4138ZM132.952 16.8234L132.039 16.4159L132.952 16.8234ZM183.407 29.4054L184.401 29.297L183.407 29.4054ZM0.636079 234.433C2.38659 235.116 4.1603 235.714 5.95498 236.227L6.50456 234.304C4.76957 233.808 3.05534 233.23 1.36383 232.57L0.636079 234.433ZM16.9429 238.31C20.6088 238.674 24.3363 238.733 28.1087 238.504L27.9878 236.508C24.3152 236.73 20.6945 236.673 17.1406 236.32L16.9429 238.31ZM39.1878 237.049C42.7499 236.338 46.3374 235.397 49.9377 234.241L49.326 232.337C45.7932 233.471 42.2793 234.393 38.7966 235.087L39.1878 237.049ZM60.3453 230.321C63.6884 228.88 67.0328 227.267 70.3684 225.492L69.429 223.727C66.1389 225.477 62.8438 227.066 59.5538 228.484L60.3453 230.321ZM79.9715 219.928C83.0542 217.996 86.1215 215.933 89.1654 213.749L87.9995 212.124C84.988 214.285 81.9552 216.324 78.9094 218.233L79.9715 219.928ZM97.9791 207.036C100.823 204.743 103.638 202.349 106.419 199.86L105.085 198.369C102.329 200.836 99.5398 203.209 96.7237 205.479L97.9791 207.036ZM114.492 192.275C117.103 189.703 119.675 187.05 122.202 184.324L120.735 182.964C118.228 185.669 115.677 188.3 113.089 190.85L114.492 192.275ZM129.551 176.04C131.93 173.238 134.26 170.373 136.536 167.449L134.958 166.221C132.699 169.122 130.387 171.965 128.026 174.745L129.551 176.04ZM143.154 158.573C145.294 155.573 147.376 152.522 149.393 149.427L147.718 148.335C145.716 151.406 143.65 154.434 141.525 157.411L143.154 158.573ZM155.241 140.026C157.126 136.847 158.941 133.63 160.679 130.381L158.916 129.438C157.191 132.66 155.391 135.852 153.521 139.006L155.241 140.026ZM165.684 120.503C167.283 117.16 168.798 113.791 170.225 110.402L168.381 109.626C166.967 112.985 165.465 116.325 163.88 119.641L165.684 120.503ZM174.265 100.089C175.531 96.5958 176.699 93.0892 177.761 89.5758L175.846 88.9972C174.795 92.4749 173.639 95.9471 172.385 99.407L174.265 100.089ZM180.658 78.8804C181.525 75.2566 182.274 71.6328 182.897 68.0165L180.926 67.6768C180.31 71.2494 179.57 74.8313 178.713 78.4151L180.658 78.8804ZM184.402 57.017C184.776 53.303 185.008 49.605 185.091 45.9314L183.092 45.8861C183.01 49.5059 182.781 53.1522 182.412 56.8168L184.402 57.017ZM184.875 34.8226C184.759 32.9717 184.601 31.1295 184.401 29.297L182.413 29.5137C182.61 31.3153 182.765 33.1272 182.879 34.9482L184.875 34.8226ZM184.401 29.297C184.217 27.6029 183.982 26.0085 183.669 24.4852L181.71 24.8879C182.007 26.3355 182.234 27.8658 182.413 29.5137L184.401 29.297ZM180.241 15.2774C179.456 13.9231 178.536 12.5831 177.457 11.2251L175.891 12.4697C176.916 13.7588 177.779 15.0184 178.511 16.2804L180.241 15.2774ZM177.457 11.2251C175.99 9.38017 174.349 7.78665 172.583 6.44181L171.371 8.03329C173.007 9.27789 174.528 10.7549 175.891 12.4697L177.457 11.2251ZM160.08 1.21339C155.534 0.556641 150.877 1.05081 146.606 2.65574L147.309 4.52794C151.261 3.04308 155.578 2.58366 159.794 3.19284L160.08 1.21339ZM135.599 10.5775C134.208 12.3021 133.005 14.2503 132.039 16.4159L133.865 17.2309C134.761 15.2225 135.873 13.4226 137.155 11.8333L135.599 10.5775ZM132.039 16.4159C131.098 18.5247 130.395 20.448 129.925 22.1982L131.857 22.7172C132.294 21.0907 132.956 19.2678 133.865 17.2309L132.039 16.4159ZM132.357 34.1672C135.037 36.2941 139.217 37.0994 144.315 37.1487L144.334 35.1488C139.323 35.1003 135.729 34.2897 133.6 32.6005L132.357 34.1672ZM156.245 36.2996C159.905 35.8354 163.859 35.2054 168.049 34.4711L167.704 32.5011C163.531 33.2325 159.61 33.8567 155.993 34.3155L156.245 36.2996ZM179.728 32.311C183.497 31.5911 187.389 30.8373 191.388 30.0805L191.016 28.1154C187.016 28.8724 183.114 29.6281 179.352 30.3465L179.728 32.311ZM203.054 27.9427C206.902 27.2676 210.81 26.6184 214.754 26.0212L214.455 24.0437C210.492 24.6437 206.568 25.2957 202.708 25.9728L203.054 27.9427ZM226.482 24.4344C230.403 23.9737 234.335 23.5886 238.254 23.3039L238.109 21.3091C234.156 21.5962 230.195 21.9844 226.249 22.4481L226.482 24.4344ZM250.059 22.7744C254.037 22.7162 257.976 22.7908 261.851 23.0247L261.971 21.0284C258.041 20.791 254.051 20.7158 250.029 20.7746L250.059 22.7744ZM273.544 24.2764C277.479 24.8999 281.312 25.7323 285.014 26.8047L285.57 24.8837C281.78 23.7857 277.865 22.9361 273.857 22.3011L273.544 24.2764ZM295.963 30.8968C299.5 32.557 302.863 34.5108 306.022 36.7935L307.194 35.1724C303.927 32.812 300.455 30.7959 296.813 29.0863L295.963 30.8968ZM314.72 44.5156C316.024 45.9332 317.275 47.4348 318.47 49.0245L320.069 47.8229C318.835 46.1805 317.541 44.6279 316.191 43.1614L314.72 44.5156Z" fill="black" fill-opacity="0.6"/>
</svg>
