<svg width="433" height="866" viewBox="0 0 433 866" fill="none" xmlns="http://www.w3.org/2000/svg">
<path d="M433 866C376.138 866 319.832 854.8 267.298 833.04C214.764 811.28 167.03 779.385 126.823 739.177C86.6149 698.969 54.7204 651.236 32.9601 598.702C11.1998 546.168 -2.86958e-05 489.862 0 433C2.8696e-05 376.137 11.1999 319.832 32.9603 267.298C54.7206 214.764 86.6152 167.03 126.823 126.823C167.031 86.6148 214.764 54.7203 267.298 32.96C319.832 11.1998 376.138 -5.49061e-05 433 2.0183e-10L433 86.6C387.51 86.6 342.466 95.5598 300.439 112.968C258.412 130.376 220.225 155.892 188.058 188.058C155.892 220.224 130.376 258.411 112.968 300.438C95.56 342.465 86.6 387.51 86.6 433C86.6 478.49 95.5599 523.534 112.968 565.561C130.376 607.589 155.892 645.775 188.058 677.942C220.224 710.108 258.411 735.624 300.438 753.032C342.466 770.44 387.51 779.4 433 779.4L433 866Z" fill="#FE7300" fill-opacity="0.24"/>
</svg>
