<svg width="205" height="536" viewBox="0 0 205 536" fill="none" xmlns="http://www.w3.org/2000/svg">
<path d="M81.504 129.444L81.504 49.9563L2.83933e-06 49.9563L6.86629e-07 0.70826L204.768 0.708251L204.768 137.508L166.752 137.508L166.752 49.9563L119.52 49.9563L119.52 129.444L81.504 129.444ZM9.85142e-06 210.374L7.69872e-06 161.126L204.768 161.126L204.768 210.374L9.85142e-06 210.374ZM38.016 293.863L38.016 379.687L1.72523e-05 379.687L1.13481e-05 244.615L204.768 244.615L204.768 293.863L38.016 293.863ZM38.016 449.706L38.016 535.53L2.40644e-05 535.53L1.81603e-05 400.458L204.768 400.458L204.768 449.706L38.016 449.706Z" fill="black" fill-opacity="0.05"/>
</svg>
