<svg width="323" height="239" viewBox="0 0 323 239" fill="none" xmlns="http://www.w3.org/2000/svg">
<path d="M3.9151 49.469C3.19741 49.5708 2.53308 49.0716 2.43127 48.3539L0.772194 36.6585C0.670385 35.9408 1.16965 35.2765 1.88734 35.1746C2.60503 35.0728 3.26937 35.5721 3.37117 36.2898L4.84591 46.6857L15.2418 45.211C15.9595 45.1092 16.6238 45.6084 16.7257 46.3261C16.8275 47.0438 16.3282 47.7082 15.6105 47.81L3.9151 49.469ZM190.048 16.5693L191.247 16.0344L190.048 16.5693ZM139.593 29.1512L138.288 29.009L139.593 29.1512ZM322.478 234.47C320.718 235.157 318.935 235.757 317.131 236.273L316.41 233.749C318.135 233.256 319.84 232.682 321.523 232.024L322.478 234.47ZM306.088 238.367C302.405 238.733 298.661 238.791 294.873 238.562L295.031 235.941C298.688 236.163 302.292 236.106 305.829 235.755L306.088 238.367ZM283.751 237.101C280.177 236.388 276.578 235.444 272.967 234.284L273.77 231.785C277.292 232.916 280.794 233.834 284.265 234.527L283.751 237.101ZM262.531 230.354C259.18 228.909 255.828 227.292 252.485 225.514L253.718 223.196C257.001 224.943 260.288 226.529 263.57 227.943L262.531 230.354ZM242.863 219.938C239.774 218.003 236.702 215.936 233.653 213.749L235.183 211.616C238.189 213.773 241.217 215.809 244.257 217.714L242.863 219.938ZM224.825 207.025C221.977 204.729 219.157 202.331 216.373 199.838L218.123 197.882C220.875 200.346 223.661 202.715 226.473 204.982L224.825 207.025ZM208.289 192.243C205.675 189.668 203.099 187.012 200.569 184.282L202.494 182.497C204.998 185.199 207.546 187.826 210.131 190.373L208.289 192.243ZM193.211 175.988C190.829 173.183 188.496 170.314 186.217 167.387L188.288 165.774C190.545 168.672 192.855 171.512 195.212 174.289L193.211 175.988ZM179.592 158.5C177.449 155.496 175.365 152.442 173.345 149.344L175.544 147.91C177.544 150.978 179.607 154.002 181.729 156.976L179.592 158.5ZM167.49 139.931C165.603 136.749 163.786 133.528 162.045 130.275L164.36 129.036C166.082 132.255 167.88 135.442 169.748 138.593L167.49 139.931ZM157.034 120.384C155.434 117.037 153.916 113.663 152.488 110.269L154.907 109.251C156.319 112.605 157.819 115.941 159.403 119.252L157.034 120.384ZM148.441 99.941C147.173 96.443 146.004 92.9311 144.941 89.4121L147.453 88.6526C148.503 92.1247 149.657 95.5916 150.909 99.0463L148.441 99.941ZM142.038 78.6989C141.17 75.0689 140.42 71.4385 139.795 67.8154L142.382 67.3695C142.997 70.9353 143.735 74.5107 144.591 78.0883L142.038 78.6989ZM138.287 56.7941C137.913 53.0724 137.68 49.3663 137.597 45.6843L140.221 45.6249C140.303 49.2363 140.531 52.8745 140.899 56.5314L138.287 56.7941ZM137.813 34.5488C137.93 32.6933 138.088 30.8463 138.288 29.009L140.898 29.2935C140.702 31.0902 140.547 32.8973 140.433 34.7137L137.813 34.5488ZM138.288 29.009C138.474 27.3077 138.71 25.7033 139.025 24.1682L141.597 24.6966C141.301 26.1325 141.077 27.6528 140.898 29.2935L138.288 29.009ZM142.489 14.8665C143.282 13.4978 144.211 12.1453 145.299 10.7765L147.354 12.41C146.338 13.6883 145.483 14.9354 144.76 16.1829L142.489 14.8665ZM145.299 10.7765C146.782 8.91121 148.441 7.29949 150.228 5.93899L151.818 8.02781C150.204 9.25674 148.701 10.7156 147.354 12.41L145.299 10.7765ZM162.875 0.649952C167.473 -0.0142312 172.183 0.48537 176.505 2.10906L175.581 4.56632C171.679 3.10022 167.416 2.64624 163.251 3.24798L162.875 0.649952ZM187.645 10.1272C189.053 11.8729 190.27 13.8442 191.247 16.0344L188.85 17.1041C187.965 15.1203 186.867 13.3436 185.602 11.7754L187.645 10.1272ZM191.247 16.0344C192.193 18.1544 192.902 20.0934 193.377 21.863L190.842 22.5441C190.41 20.9369 189.754 19.1298 188.85 17.1041L191.247 16.0344ZM190.838 34.1578C188.071 36.3532 183.8 37.1576 178.688 37.2071L178.663 34.5822C183.661 34.5338 187.164 33.7223 189.206 32.1016L190.838 34.1578ZM166.716 36.3555C163.05 35.8904 159.09 35.2595 154.897 34.5247L155.35 31.9391C159.521 32.67 163.436 33.2934 167.046 33.7513L166.716 36.3555ZM143.214 32.3638C139.444 31.6437 135.553 30.8902 131.555 30.1334L132.043 27.5542C136.042 28.3112 139.947 29.0673 143.706 29.7854L143.214 32.3638ZM119.892 27.9964C116.046 27.3216 112.14 26.6727 108.2 26.076L108.592 23.4806C112.558 24.081 116.484 24.7334 120.346 25.4109L119.892 27.9964ZM96.4813 24.4906C92.5645 24.0304 88.6378 23.6457 84.724 23.3614L84.9142 20.7433C88.8718 21.0308 92.8375 21.4194 96.7877 21.8835L96.4813 24.4906ZM72.937 22.8327C68.9658 22.7746 65.0347 22.8491 61.1683 23.0825L61.0101 20.4623C64.9494 20.2244 68.9465 20.1491 72.9754 20.2079L72.937 22.8327ZM49.5047 24.3309C45.5812 24.9526 41.7613 25.7823 38.0733 26.8507L37.3428 24.3294C41.1469 23.2273 45.0745 22.3751 49.0939 21.7383L49.5047 24.3309ZM27.17 30.9255C23.6499 32.578 20.3034 34.5221 17.1611 36.7926L15.6237 34.6649C18.9072 32.2924 22.3963 30.2666 26.0545 28.5493L27.17 30.9255ZM8.51057 44.4731C7.21323 45.883 5.9685 47.3766 4.77998 48.9581L2.68153 47.381C3.92208 45.7303 5.22244 44.1698 6.57889 42.6956L8.51057 44.4731Z" fill="black" fill-opacity="0.6"/>
</svg>
