<svg width="199" height="188" viewBox="0 0 199 188" fill="none" xmlns="http://www.w3.org/2000/svg">
<path d="M13.0513 0.406623C13.7958 0.0433355 14.6939 0.352388 15.0572 1.09691L20.9773 13.2296C21.3406 13.9741 21.0315 14.8722 20.287 15.2355C19.5425 15.5988 18.6444 15.2897 18.2811 14.5452L13.0188 3.76057L2.2342 9.02289C1.48967 9.38618 0.591617 9.07712 0.22833 8.3326C-0.134958 7.58808 0.174095 6.69002 0.918617 6.32673L13.0513 0.406623ZM195.709 187.755C195.709 185.906 195.564 184.149 195.283 182.476L198.241 181.979C198.551 183.824 198.709 185.748 198.709 187.755L195.709 187.755ZM191.703 172.79C189.953 169.898 187.655 167.278 184.867 164.882L186.822 162.606C189.813 165.176 192.331 168.033 194.27 171.237L191.703 172.79ZM176.068 158.855C173.082 157.188 169.812 155.65 166.299 154.212L167.435 151.436C171.036 152.91 174.418 154.498 177.53 156.235L176.068 158.855ZM156.099 150.5C152.743 149.404 149.244 148.364 145.628 147.361L146.43 144.47C150.079 145.483 153.623 146.536 157.03 147.648L156.099 150.5ZM135.019 144.578C131.526 143.705 127.961 142.847 124.344 141.99L125.036 139.071C128.658 139.93 132.237 140.79 135.747 141.667L135.019 144.578ZM113.641 139.468C110.095 138.632 106.521 137.782 102.941 136.905L103.655 133.991C107.223 134.865 110.787 135.713 114.33 136.549L113.641 139.468ZM92.2633 134.195C88.7009 133.254 85.1507 132.273 81.6329 131.237L82.4799 128.359C85.9663 129.385 89.489 130.359 93.0295 131.295L92.2633 134.195ZM71.0891 127.92C67.5609 126.73 64.0864 125.468 60.6876 124.119L61.7941 121.331C65.1381 122.658 68.5629 123.902 72.0481 125.077L71.0891 127.92ZM50.513 119.69C47.1253 118.069 43.8439 116.334 40.6947 114.468L42.224 111.887C45.2888 113.703 48.4912 115.397 51.808 116.984L50.513 119.69ZM31.4271 108.277C28.4273 106.009 25.6023 103.576 22.9829 100.955L25.1048 98.834C27.6181 101.349 30.3373 103.692 33.2361 105.884L31.4271 108.277ZM15.7084 92.421C13.5492 89.4194 11.6267 86.2153 9.97023 82.7898L12.671 81.4838C14.2501 84.7494 16.0832 87.8046 18.1437 90.6691L15.7084 92.421ZM5.97162 72.3289C4.97053 68.8718 4.2062 65.2279 3.69775 61.3842L6.67185 60.9908C7.1613 64.6909 7.8955 68.1871 8.85323 71.4944L5.97162 72.3289ZM2.95903 50.262C2.94081 46.7099 3.11611 43.0088 3.49599 39.1509L6.48155 39.4449C6.11118 43.2062 5.94133 46.8039 5.95899 50.2466L2.95903 50.262ZM5.06918 28.1167C5.71856 24.5917 6.52275 20.9481 7.48864 17.1808L10.3946 17.9258C9.44481 21.6305 8.65571 25.2069 8.01953 28.6602L5.06918 28.1167ZM10.4926 6.71105C11.058 4.92218 11.6572 3.10751 12.2907 1.26659L15.1275 2.24281C14.5019 4.06047 13.9107 5.85113 13.3531 7.61523L10.4926 6.71105Z" fill="black" fill-opacity="0.6"/>
</svg>
